<svg width="43" height="43" viewBox="0 0 43 43" fill="none" xmlns="http://www.w3.org/2000/svg">
<path d="M21.0415 0.624989C21.1283 0.617619 21.1283 0.617619 21.2168 0.610099C22.2217 0.586644 23.0943 1.25242 23.7923 1.9191C24.1512 2.27434 24.5043 2.63509 24.8551 2.9986C25.0758 3.22648 25.2984 3.45237 25.5208 3.67853C25.9547 4.12042 26.3868 4.56408 26.8183 5.00838C27.3216 5.52648 27.8268 6.04276 28.332 6.55897C29.2335 7.48024 30.1335 8.40311 31.0326 9.32691C31.9037 10.2221 32.776 11.1162 33.6494 12.009C33.7033 12.0641 33.7571 12.1191 33.8126 12.1759C33.8664 12.2308 33.9201 12.2858 33.9755 12.3424C34.0838 12.4531 34.1921 12.5638 34.3004 12.6745C34.3805 12.7564 34.3805 12.7564 34.4622 12.8399C35.2966 13.6929 36.13 14.5469 36.9633 15.401C37.2647 15.7098 37.5662 16.0185 37.8678 16.3271C38.3459 16.8165 38.8237 17.3062 39.3006 17.7968C39.5184 18.0207 39.7363 18.2445 39.9547 18.4677C40.1919 18.71 40.4281 18.9533 40.6642 19.1968C40.7328 19.2666 40.8015 19.3364 40.8722 19.4084C41.6705 20.2355 42.0974 20.941 42.0931 22.1198C42.0935 22.1958 42.0939 22.2718 42.0943 22.3501C42.0953 22.6039 42.0952 22.8576 42.095 23.1113C42.0955 23.2936 42.0961 23.4759 42.0967 23.6582C42.0982 24.1528 42.0986 24.6474 42.0987 25.142C42.0988 25.4512 42.0992 25.7604 42.0996 26.0696C42.1011 27.1487 42.1018 28.2279 42.1017 29.307C42.1016 30.3121 42.1033 31.3172 42.1059 32.3223C42.1081 33.186 42.109 34.0496 42.1089 34.9133C42.1089 35.4288 42.1093 35.9443 42.1111 36.4598C42.1127 36.9448 42.1127 37.4297 42.1115 37.9147C42.1113 38.0923 42.1117 38.2699 42.1127 38.4476C42.1218 40.1645 42.1218 40.1645 41.7393 40.8296C41.6931 40.9152 41.6469 41.0008 41.5994 41.089C41.1511 41.6707 40.6869 42.1763 39.9981 42.439C39.9256 42.4679 39.8531 42.4967 39.7785 42.5264C39.4685 42.6179 39.1859 42.6321 38.8665 42.63C38.804 42.6303 38.7415 42.6306 38.6771 42.6308C38.4674 42.6315 38.2578 42.631 38.0481 42.6305C37.8964 42.6308 37.7446 42.6311 37.5929 42.6315C37.1757 42.6324 36.7585 42.6322 36.3414 42.6318C35.8915 42.6316 35.4417 42.6324 34.9918 42.633C34.1104 42.6341 33.229 42.6343 32.3476 42.6341C31.6312 42.6339 30.9149 42.6341 30.1985 42.6344C30.0457 42.6345 30.0457 42.6345 29.8897 42.6346C29.6827 42.6347 29.4758 42.6348 29.2688 42.6349C27.3822 42.6358 25.4957 42.6357 23.6092 42.6352C21.8874 42.6347 20.1657 42.6354 18.4439 42.6369C16.5094 42.6387 14.5749 42.6396 12.6404 42.6393C11.6162 42.6391 10.592 42.6393 9.56772 42.6405C8.69572 42.6415 7.82373 42.6416 6.95173 42.6406C6.50679 42.6401 6.06187 42.64 5.61694 42.641C5.20956 42.6419 4.8022 42.6417 4.39482 42.6405C4.24752 42.6403 4.10021 42.6405 3.95291 42.6412C2.66692 42.6467 1.87455 42.4313 0.924192 41.5178C0.627666 41.2066 0.433622 40.8952 0.281597 40.4908C0.253332 40.4191 0.225066 40.3474 0.195944 40.2735C0.0967276 39.9134 0.0924989 39.5905 0.094151 39.2185C0.0938338 39.1424 0.0935162 39.0663 0.0931894 38.988C0.0923351 38.7336 0.0926639 38.4792 0.0929933 38.2249C0.0926328 38.0423 0.092203 37.8597 0.0917092 37.6771C0.0905987 37.1815 0.0905504 36.6858 0.0907603 36.1902C0.090849 35.7763 0.0904453 35.3625 0.090048 34.9486C0.0891279 33.9722 0.0890912 32.9958 0.0895925 32.0193C0.0900933 31.0122 0.0890722 30.0051 0.0873063 28.998C0.0858456 28.1332 0.0853487 27.2683 0.0856185 26.4034C0.0857689 25.887 0.0855494 25.3706 0.0843976 24.8541C0.083355 24.3684 0.0835157 23.8827 0.0845975 23.3969C0.0847937 23.2188 0.084567 23.0407 0.0838827 22.8626C0.0830149 22.6191 0.0836868 22.3757 0.084738 22.1323C0.0841265 22.0621 0.0835157 21.9919 0.0828857 21.9196C0.0937044 20.7255 0.812277 19.9188 1.60562 19.1141C1.67961 19.0381 1.7536 18.9621 1.82983 18.8837C2.03359 18.6743 2.2381 18.4657 2.44276 18.2573C2.66399 18.0317 2.88449 17.8053 3.1051 17.5791C3.53674 17.1367 3.96906 16.6949 4.40163 16.2534C4.75335 15.8945 5.10483 15.5353 5.45616 15.1759C5.50625 15.1247 5.55634 15.0734 5.60794 15.0206C5.70972 14.9165 5.81149 14.8124 5.91326 14.7083C6.86662 13.7332 7.82077 12.7589 8.77517 11.7848C9.64745 10.8945 10.5188 10.0032 11.3897 9.1115C12.285 8.19477 13.1809 7.27868 14.0775 6.36326C14.5804 5.84976 15.0831 5.33601 15.5851 4.82162C16.0125 4.38378 16.4404 3.94655 16.8691 3.51008C17.0876 3.28758 17.3058 3.06483 17.5233 2.84132C17.7596 2.59857 17.9971 2.35716 18.2347 2.11586C18.3026 2.04568 18.3705 1.9755 18.4405 1.90319C19.1941 1.14303 19.9642 0.653903 21.0415 0.624989ZM20.1982 3.30285C20.1265 3.37229 20.0547 3.44172 19.9808 3.51326C19.9101 3.58394 19.8395 3.65461 19.7667 3.72742C19.7045 3.78882 19.6423 3.85022 19.5783 3.91349C19.3887 4.10256 19.2011 4.29355 19.0139 4.48515C18.943 4.55745 18.872 4.62975 18.7989 4.70425C18.6045 4.90244 18.4102 5.10082 18.2161 5.29929C18.0057 5.51424 17.7951 5.72894 17.5845 5.94368C17.1731 6.36327 16.7619 6.78309 16.3508 7.203C16.0168 7.54424 15.6827 7.88541 15.3485 8.22653C14.4001 9.1947 13.4519 10.163 12.5039 11.1316C12.4274 11.2097 12.4274 11.2097 12.3494 11.2894C12.2983 11.3416 12.2473 11.3937 12.1947 11.4475C11.3658 12.2943 10.5365 13.1408 9.70697 13.987C8.85428 14.8569 8.0019 15.7271 7.14984 16.5977C6.67183 17.0861 6.1937 17.5743 5.71523 18.0622C5.30835 18.4771 4.90175 18.8923 4.49553 19.3079C4.28831 19.5199 4.08096 19.7317 3.87325 19.9432C3.64818 20.1723 3.42375 20.4021 3.19939 20.632C3.13357 20.6988 3.06776 20.7656 2.99995 20.8344C2.93989 20.8962 2.87983 20.9579 2.81795 21.0216C2.74018 21.101 2.74018 21.101 2.66084 21.182C2.3001 21.6048 2.23537 21.9437 2.23942 22.4931C2.23898 22.5657 2.23853 22.6384 2.23807 22.7132C2.23688 22.9566 2.23747 23.1999 2.23806 23.4432C2.23759 23.6177 2.23701 23.7922 2.23634 23.9667C2.23485 24.4406 2.23495 24.9146 2.23542 25.3885C2.23568 25.7841 2.23517 26.1796 2.23467 26.5752C2.23351 27.5083 2.23364 28.4414 2.23458 29.3744C2.23553 30.3373 2.23437 31.3002 2.23214 32.2631C2.23031 33.0896 2.22976 33.9161 2.23024 34.7426C2.23052 35.2363 2.23032 35.7301 2.2289 36.2238C2.22762 36.688 2.22794 37.1522 2.2295 37.6165C2.22981 37.7869 2.22955 37.9573 2.22868 38.1277C2.22759 38.3603 2.22854 38.5928 2.23001 38.8254C2.22921 38.8928 2.22842 38.9603 2.2276 39.0297C2.23331 39.4703 2.32242 39.7154 2.60323 40.0672C3.0527 40.4989 3.51822 40.452 4.10101 40.4445C4.25154 40.4446 4.25154 40.4446 4.40511 40.4447C4.67921 40.4445 4.95322 40.4428 5.2273 40.4404C5.51413 40.4383 5.80096 40.4381 6.08779 40.4377C6.63046 40.4366 7.1731 40.4339 7.71575 40.4305C8.33376 40.4267 8.95176 40.4248 9.56977 40.4231C10.8406 40.4196 12.1114 40.4136 13.3822 40.406C13.3825 40.3048 13.3825 40.3048 13.3828 40.2016C13.3877 38.5585 13.394 36.9154 13.4018 35.2723C13.4055 34.4777 13.4088 33.6831 13.411 32.8885C13.4129 32.1958 13.4156 31.5032 13.4194 30.8105C13.4214 30.4438 13.423 30.0772 13.4235 29.7105C13.424 29.3651 13.4257 29.0197 13.4282 28.6743C13.4289 28.5478 13.4292 28.4213 13.4291 28.2948C13.4281 27.1168 13.6919 26.3011 14.4912 25.4286C15.2672 24.6792 16.2531 24.6246 17.2736 24.6271C17.4166 24.6264 17.4166 24.6264 17.5624 24.6258C17.875 24.6246 18.1877 24.6247 18.5003 24.6249C18.7188 24.6245 18.9372 24.6242 19.1556 24.6238C19.6124 24.6231 20.0692 24.6231 20.526 24.6236C21.0527 24.6241 21.5793 24.6231 22.106 24.6213C22.6147 24.6196 23.1235 24.6193 23.6323 24.6196C23.8479 24.6196 24.0635 24.6191 24.2791 24.6183C24.5805 24.6172 24.8819 24.6178 25.1833 24.6188C25.3162 24.6178 25.3162 24.6178 25.4517 24.6168C25.9662 24.6205 26.3446 24.6882 26.8145 24.9045C26.8811 24.9334 26.9477 24.9623 27.0163 24.9921C27.7499 25.3764 28.3842 26.0668 28.6443 26.8732C28.7197 27.184 28.7432 27.4453 28.7447 27.7646C28.7454 27.8463 28.7454 27.8463 28.7461 27.9296C28.7475 28.1104 28.7478 28.2912 28.748 28.4719C28.7488 28.6022 28.7496 28.7325 28.7505 28.8628C28.7528 29.2152 28.754 29.5676 28.7551 29.9201C28.7564 30.2889 28.7586 30.6576 28.7608 31.0264C28.7646 31.7242 28.7677 32.422 28.7704 33.1198C28.7736 33.9144 28.7777 34.7091 28.7819 35.5037C28.7904 37.1378 28.7978 38.7719 28.8045 40.406C30.1364 40.414 31.4684 40.4199 32.8003 40.4236C33.4188 40.4253 34.0373 40.4277 34.6557 40.4316C35.1949 40.435 35.734 40.4372 36.2731 40.4379C36.5585 40.4384 36.8439 40.4394 37.1293 40.4419C37.4481 40.4446 37.7669 40.4447 38.0857 40.4445C38.1801 40.4457 38.2744 40.4469 38.3716 40.4482C38.8701 40.4455 39.2031 40.4325 39.5835 40.0672C39.9201 39.645 39.9632 39.3489 39.9584 38.8271C39.959 38.7545 39.9596 38.6819 39.9603 38.6071C39.962 38.3644 39.9613 38.1218 39.9607 37.8791C39.9614 37.7048 39.9623 37.5306 39.9633 37.3564C39.9655 36.8835 39.9656 36.4106 39.9652 35.9377C39.965 35.5428 39.9658 35.1479 39.9666 34.753C39.9684 33.8212 39.9685 32.8895 39.9675 31.9577C39.9665 30.9968 39.9685 30.0359 39.9721 29.075C39.975 28.2497 39.976 27.4244 39.9754 26.5991C39.9751 26.1063 39.9756 25.6136 39.9779 25.1208C39.98 24.6573 39.9796 24.1938 39.9775 23.7304C39.9771 23.5604 39.9775 23.3905 39.9789 23.2206C39.9807 22.9882 39.9793 22.756 39.9772 22.5237C39.9784 22.4568 39.9796 22.3899 39.9809 22.3209C39.9644 21.4523 39.262 20.9089 38.6964 20.3343C38.6249 20.2609 38.5533 20.1875 38.4795 20.1119C38.2823 19.9098 38.0847 19.7081 37.8869 19.5066C37.6731 19.2886 37.4598 19.0701 37.2465 18.8516C36.8291 18.4245 36.4112 17.9978 35.9932 17.5712C35.6536 17.2246 35.314 16.8778 34.9746 16.5308C34.9263 16.4814 34.8779 16.432 34.8281 16.381C34.7298 16.2806 34.6315 16.1801 34.5333 16.0797C33.6128 15.1389 32.6919 14.1986 31.7708 13.2585C30.9805 12.4519 30.1907 11.6448 29.4012 10.8375C28.4838 9.89934 27.5661 8.96148 26.6481 8.02406C26.5502 7.92413 26.4523 7.82419 26.3544 7.72425C26.3063 7.67508 26.2581 7.62592 26.2085 7.57526C25.8692 7.2288 25.5302 6.88215 25.1912 6.53542C24.7782 6.11306 24.365 5.691 23.9513 5.26933C23.7403 5.0542 23.5294 4.83894 23.3189 4.62331C23.0908 4.38965 22.862 4.15665 22.6332 3.92372C22.5334 3.82121 22.5334 3.82121 22.4316 3.71662C22.3394 3.6231 22.3394 3.6231 22.2454 3.52769C22.1926 3.47386 22.1399 3.42003 22.0856 3.36456C21.693 3.01456 21.3654 2.88912 20.848 2.91143C20.5418 2.97654 20.4227 3.08323 20.1982 3.30285Z" fill="#525B5A"/>
</svg>
