<svg width="28" height="27" viewBox="0 0 28 27" fill="none" xmlns="http://www.w3.org/2000/svg">
<path d="M27.75 13.5C27.75 20.8093 21.6026 26.75 14 26.75C6.39744 26.75 0.250008 20.8093 0.250008 13.5C0.250008 6.19072 6.39744 0.25 14 0.25C21.6026 0.25 27.75 6.19072 27.75 13.5Z" fill="#EFCFCF" stroke="#BB3434" stroke-width="0.5"/>
<path fill-rule="evenodd" clip-rule="evenodd" d="M14.0009 15.9689L18.5322 20.1791C18.9868 20.6048 19.2825 20.6091 19.7454 20.1791L20.6545 19.3342C21.0999 18.9205 21.1301 18.6489 20.6545 18.207L15.8572 13.7502L20.655 9.29333C21.1043 8.87445 21.1131 8.59175 20.655 8.16572L19.7458 7.32121C19.2742 6.88287 18.9828 6.90312 18.5326 7.32121L14.0009 11.5315L9.46959 7.3216C9.01939 6.90351 8.72801 6.88326 8.25638 7.3216L7.34723 8.16612C6.88872 8.59215 6.89703 8.87485 7.34723 9.29373L12.1445 13.7502L7.34723 18.207C6.87166 18.6489 6.89703 18.9205 7.34723 19.3342L8.25594 20.1791C8.71489 20.6091 9.01064 20.6048 9.46916 20.1791L14.0009 15.9689Z" fill="#BB3434"/>
</svg>
