<svg width="28" height="27" viewBox="0 0 28 27" fill="none" xmlns="http://www.w3.org/2000/svg">
<path d="M27.85 13.5C27.85 20.8679 21.6543 26.85 14 26.85C6.34567 26.85 0.15 20.8679 0.15 13.5C0.15 6.13209 6.34567 0.15 14 0.15C21.6543 0.15 27.85 6.13209 27.85 13.5Z" fill="#F7F2EC" stroke="#21A89A" stroke-width="0.3"/>
<path d="M20.3894 8.10078C20.6865 8.31415 20.8783 8.49521 20.972 8.88169C21.0195 9.20249 21.017 9.47934 20.8815 9.77227C20.4865 10.3268 20.0153 10.8183 19.5663 11.3184C19.4928 11.4006 19.4193 11.4828 19.3457 11.565C19.148 11.786 18.9501 12.0068 18.752 12.2275C18.6282 12.3656 18.5044 12.5037 18.3806 12.6418C17.9484 13.1241 17.5161 13.6063 17.0836 14.0883C16.6808 14.5372 16.2783 14.9864 15.876 15.4359C15.5299 15.8226 15.1834 16.2091 14.8368 16.5954C14.6301 16.8257 14.4235 17.0562 14.2172 17.2869C14.0235 17.5034 13.8296 17.7196 13.6354 17.9354C13.5642 18.0147 13.4931 18.0941 13.4222 18.1736C13.3253 18.2821 13.2282 18.3901 13.1309 18.498C13.0766 18.5585 13.0223 18.6191 12.9663 18.6815C12.7256 18.9211 12.5504 18.989 12.2294 18.994C12.1718 18.996 12.1141 18.9979 12.0547 19C11.6383 18.925 11.3429 18.5351 11.0574 18.2148C11.0152 18.168 10.9729 18.1212 10.9294 18.0729C10.7907 17.9189 10.6524 17.7644 10.5141 17.6098C10.4176 17.5023 10.321 17.3948 10.2244 17.2873C10.0224 17.0624 9.82057 16.8372 9.61895 16.6118C9.36044 16.3229 9.10136 16.0346 8.84211 15.7465C8.64273 15.5248 8.44365 15.3028 8.24466 15.0806C8.14923 14.9742 8.05371 14.8678 7.95809 14.7616C7.82467 14.6132 7.69165 14.4644 7.55874 14.3155C7.51915 14.2717 7.47956 14.2279 7.43877 14.1827C7.40258 14.142 7.36639 14.1012 7.3291 14.0593C7.29766 14.0242 7.26622 13.9891 7.23383 13.9529C6.99601 13.6368 6.99513 13.3292 7.00169 12.9299C7.03696 12.6202 7.13485 12.4369 7.34046 12.229C7.61151 12.0113 7.85686 11.9924 8.18062 11.9836C8.57981 12.0666 8.87534 12.3646 9.15128 12.6791C9.20114 12.7346 9.20114 12.7346 9.252 12.7912C9.36047 12.9123 9.46826 13.034 9.57605 13.1558C9.65163 13.2405 9.72726 13.325 9.80292 13.4096C10.001 13.6311 10.1985 13.8533 10.3959 14.0756C10.5978 14.3028 10.8002 14.5294 11.0026 14.756C11.3989 15.2 11.7947 15.6446 12.19 16.0897C12.5816 15.7295 12.9374 15.335 13.2946 14.9335C13.3605 14.8596 13.4265 14.7858 13.4924 14.712C13.6337 14.5539 13.7748 14.3956 13.9159 14.2373C14.1391 13.987 14.3626 13.737 14.5862 13.487C15.2216 12.7765 15.8567 12.0657 16.4912 11.3542C16.8422 10.9606 17.1935 10.5673 17.5452 10.1745C17.7675 9.9262 17.9894 9.67742 18.211 9.4283C18.3488 9.27358 18.487 9.1193 18.6253 8.96514C18.6893 8.89362 18.7532 8.82192 18.8169 8.75003C18.9039 8.65186 18.9915 8.55441 19.0792 8.457C19.128 8.40229 19.1768 8.34758 19.2272 8.29121C19.5734 7.96769 19.9746 7.92854 20.3894 8.10078Z" fill="#21A89A"/>
</svg>
