<svg width="43" height="43" viewBox="0 0 43 43" fill="none" xmlns="http://www.w3.org/2000/svg">
<g clip-path="url(#clip0_114_1478)">
<path d="M19.8346 19.2627C20.1648 19.2268 20.4034 18.9298 20.3675 18.5996C20.3317 18.2691 20.0355 18.0319 19.7042 18.0663C15.7973 18.4897 13.9396 17.0507 13.07 15.7677C11.8549 13.9747 11.8278 11.3864 13.0012 9.17379C14.1703 6.97004 16.2239 5.70643 18.6365 5.70643H18.6382C20.4762 5.70643 22.125 6.4562 23.0487 7.71156C24.0123 9.02102 24.1698 10.8411 23.5046 12.9754C23.2437 13.8131 22.3924 14.9119 21.6431 15.1284C21.3376 15.2176 21.0961 15.1848 20.9069 15.0282C20.6889 14.8469 20.6107 14.5655 20.6172 14.4541C20.6184 14.4471 20.619 14.4406 20.6196 14.4335L21.2789 7.84135C21.3141 7.51084 21.0749 7.21438 20.7447 7.17943C20.4086 7.14272 20.1178 7.38334 20.0825 7.71385L20.0242 8.26054C20.0137 8.25272 20.005 8.24327 19.9944 8.23563C19.2234 7.68124 18.1432 7.6272 17.1034 8.09141C15.333 8.88052 14.0547 11.3887 14.3676 13.4584C14.6023 15.0108 15.6967 16.0162 17.3711 16.2169C18.1396 16.3083 19.083 16.0814 19.7828 15.564C19.8844 15.7101 20.0044 15.8429 20.1383 15.9542C20.6342 16.3655 21.287 16.4833 21.9774 16.2844C23.1861 15.9347 24.2873 14.5093 24.6539 13.3332C25.6433 10.1567 24.8542 8.13485 24.0181 6.99844C22.8682 5.43573 20.8569 4.50293 18.6382 4.50293H18.6364C15.764 4.50293 13.3226 5.99981 11.9382 8.60958C10.5586 11.2108 10.6117 14.2854 12.074 16.4427C13.3576 18.3366 15.5777 19.3422 18.4117 19.3422C18.8704 19.3423 19.3451 19.3159 19.8346 19.2627ZM19.7741 10.6366L19.4316 14.2115C19.0819 14.7859 18.1647 15.0987 17.5137 15.0221C16.3699 14.8849 15.7118 14.2985 15.5576 13.2787C15.326 11.7472 16.3153 9.76019 17.5936 9.19027C17.9027 9.05249 18.2152 8.98371 18.5025 8.98371C18.8051 8.98371 19.0802 9.06037 19.2917 9.2126C19.6707 9.48492 19.837 9.97734 19.7741 10.6366Z" fill="#525B5A"/>
<path d="M34.4509 13.138L30.0804 10.4315V1.31281C30.0804 0.980557 29.8113 0.711121 29.4788 0.711121H6.27465C5.9424 0.711121 5.67296 0.980557 5.67296 1.31281V10.3477C3.58426 11.6645 2.17955 12.6249 1.51137 13.1965C0.593556 13.9812 0.0882568 15.0997 0.0882568 16.3454V33.8094C0.0881967 36.1289 1.97522 38.0159 4.29443 38.0159H31.7486C32.882 38.0159 33.9101 37.5632 34.6672 36.8316C34.6686 36.8302 34.6705 36.8298 34.6718 36.8284C34.6725 36.8277 34.6726 36.8268 34.6733 36.826C35.4619 36.061 35.9545 34.9924 35.9545 33.8094V16.3454C35.9546 15.2957 35.5609 13.8258 34.4509 13.138ZM30.0804 11.8468L33.1246 13.7319L30.0804 16.3871V11.8468ZM34.137 14.4453C34.5561 14.9264 34.7512 15.695 34.7512 16.3454V33.8094C34.7512 34.456 34.5411 35.0518 34.1922 35.5425L22.5889 24.5179L34.137 14.4453ZM6.87634 1.9145H28.8771V17.4362L18.0202 26.9064L6.87628 17.1906L6.87634 1.9145ZM5.67296 11.7726V16.1424L2.84628 13.6781C3.48155 13.2066 4.43607 12.563 5.67296 11.7726ZM1.29158 33.8094V16.3454C1.29158 15.6277 1.51998 14.9973 1.94032 14.4851L13.8846 24.8978L2.24592 35.9928C1.66198 35.4445 1.29158 34.6716 1.29158 33.8094ZM4.29443 36.8125C3.95002 36.8125 3.62427 36.7422 3.3159 36.635L14.7955 25.6918L17.6247 28.1583C17.7381 28.257 17.8791 28.3064 18.0201 28.3064C18.1611 28.3064 18.3024 28.257 18.4155 28.158L21.678 25.3124L33.3086 36.3628C32.8527 36.6427 32.3219 36.8125 31.7486 36.8125H4.29443Z" fill="#525B5A"/>
</g>
<defs>
<clipPath id="clip0_114_1478">
<rect width="42.0321" height="42.0321" fill="white" transform="translate(0.0882568 0.711121)"/>
</clipPath>
</defs>
</svg>
