<svg width="28" height="27" viewBox="0 0 28 27" fill="none" xmlns="http://www.w3.org/2000/svg">
<path d="M27.75 13.5C27.75 20.8093 21.6026 26.75 14 26.75C6.39744 26.75 0.25 20.8093 0.25 13.5C0.25 6.19072 6.39744 0.25 14 0.25C21.6026 0.25 27.75 6.19072 27.75 13.5Z" fill="#EFCFCF" stroke="#BB3434" stroke-width="0.5"/>
<path d="M9.83333 21.5C9.37499 21.5 8.98263 21.3368 8.65624 21.0104C8.32986 20.684 8.16666 20.2917 8.16666 19.8333V9H7.33333V7.33333H11.5V6.5H16.5V7.33333H20.6667V9H19.8333V19.8333C19.8333 20.2917 19.6701 20.684 19.3437 21.0104C19.0174 21.3368 18.625 21.5 18.1667 21.5H9.83333ZM18.1667 9H9.83333V19.8333H18.1667V9ZM11.5 18.1667H13.1667V10.6667H11.5V18.1667ZM14.8333 18.1667H16.5V10.6667H14.8333V18.1667Z" fill="#BB3434"/>
</svg>
