<svg width="48" height="48" viewBox="0 0 48 48" fill="none" xmlns="http://www.w3.org/2000/svg">
<path d="M26 8.01789C26.0004 6.91331 25.1054 6.01753 24.0008 6.01709C22.8962 6.01667 22.0004 6.91175 22 8.01631L21.9936 24.0232C21.9932 25.1278 22.8884 26.0236 23.993 26.024C25.0974 26.0244 25.9932 25.1294 25.9936 24.0248L26 8.01789Z" fill="#525B5A"/>
<path d="M8 25.9835C8 21.5653 9.79082 17.5653 12.6862 14.6698L15.5146 17.4983C13.3431 19.6698 12 22.6699 12 25.9835C12 32.6109 17.3726 37.9835 24 37.9835C30.6274 37.9835 36 32.6109 36 25.9835C36 22.6697 34.6568 19.6697 32.4852 17.4981L35.3136 14.6697C38.2092 17.5651 40 21.5651 40 25.9835C40 34.8201 32.8366 41.9835 24 41.9835C15.1634 41.9835 8 34.8201 8 25.9835Z" fill="#525B5A"/>
</svg>
