<svg width="236" height="146" viewBox="0 0 236 146" fill="none" xmlns="http://www.w3.org/2000/svg">
<path fill-rule="evenodd" clip-rule="evenodd" d="M145 73C145 95.3694 135.007 115.389 119.272 128.78C126.83 132.135 135.197 134 144 134C162.799 134 179.611 125.496 190.801 112.126L200.273 117.594C186.991 134.294 166.496 145 143.5 145C130.941 145 119.128 141.807 108.829 136.188C104.909 134.05 101.209 131.56 97.7697 128.761C88.7727 121.439 81.5656 112.003 76.9061 101.209C73.1057 92.4049 71 82.6983 71 72.5C71 52.166 79.3711 33.7872 92.8551 20.6218C96.9489 22.1745 100.813 24.1934 104.384 26.6137C91.296 37.8019 83 54.4321 83 73C83 93.4466 93.0598 111.544 108.5 122.612C122.669 112.455 132.307 96.379 133.798 78H88V68H133.798H143H144.833C144.944 69.6522 145 71.3195 145 73ZM72.5 146C83.774 146 94.4469 143.409 103.964 138.786C100.054 136.402 96.3742 133.679 92.964 130.658C86.7088 132.824 79.9918 134 73 134C39.3106 134 12 106.689 12 73C12 60.4122 15.8128 48.7149 22.3466 39C33.2994 22.7146 51.8985 12 73 12C81.5122 12 89.6172 13.7435 96.9773 16.893C101.068 18.6432 104.928 20.8276 108.5 23.3883C112.953 26.5806 116.959 30.3577 120.405 34.6072L128.446 26.5666C125.671 23.1816 122.6 20.0527 119.272 17.2204C126.83 13.8646 135.197 12 144 12C163.61 12 181.058 21.2531 192.218 35.6313L202.163 29.8893C188.982 11.775 167.616 0 143.5 0C130.58 0 118.449 3.37968 107.943 9.3032C97.4639 3.37859 85.3738 0 72.5 0C32.4594 0 0 32.6832 0 73C0 113.317 32.4594 146 72.5 146ZM169.152 33.5228C167.075 31.6405 165.959 30.8038 163.152 30.7103C160.125 33.7372 159.336 36.5843 158.652 40.7728C159.848 50.1866 164.786 57.1601 172.027 63.0189C174.614 65.0778 176.855 67.3389 179.152 69.7103C173.699 68.0839 169.827 67.3483 164.152 68.7103C163.005 69.8572 162.516 70.3464 162.166 70.9205C161.905 71.3474 161.722 71.8214 161.402 72.6478C161.307 73.43 161.248 73.9155 161.321 74.3806C161.44 75.1418 161.91 75.848 163.152 77.7103C167.798 81.5081 172.521 83.3354 178.365 84.4251L178.791 84.4957C182.602 85.1268 186.407 85.757 190.152 86.7103C193.351 88.1369 194.718 88.8523 196.297 91.972C196.524 92.7968 196.744 93.5973 196.965 94.3978C197.378 95.8303 197.78 97.2665 198.152 98.7103H196.152V96.7103C192.25 93.4248 187.82 90.7566 183.152 88.7103C178.595 88.1957 176.978 88.1597 173.152 90.7103C172.678 91.7757 172.429 92.3367 172.298 92.924C172.152 93.5769 172.152 94.2625 172.152 95.7103C175.362 100.569 178.22 102.553 183.648 104.531C184.325 104.76 185.004 104.985 185.685 105.211C189.596 106.509 193.543 107.82 197.142 109.811C200.579 111.895 201.994 112.71 206.152 112.71L205.152 101.71C205.851 101.517 206.545 101.334 207.232 101.153C210.819 100.206 214.238 99.304 217.426 97.2337C219.462 95.4373 219.978 94.4088 220.152 91.7103L218.152 89.7103C214.649 89.4507 211.988 89.3673 208.715 90.7103C208.283 90.9871 208.087 91.1122 207.871 91.2502L207.152 91.7103L212.152 86.7103C213.728 87.2356 214.476 87.4849 215.244 87.6276C215.938 87.7566 216.648 87.7985 218 87.8782L221.215 87.8978L224.438 87.9407C227.152 87.7103 227.152 87.7103 229.152 85.7103C229.218 84.3325 229.249 83.6779 229.246 83.0234C229.243 82.431 229.211 81.8387 229.152 80.7103L223.152 77.7103C223.751 77.6144 224.121 77.5553 224.486 77.4765C225.074 77.35 225.65 77.1726 227.152 76.7103C227.252 76.6665 227.352 76.623 227.451 76.5799C231.026 75.0212 233.686 73.8614 235.215 70.0853C235.186 68.9887 235.17 68.3984 234.965 67.8838C234.726 67.2839 234.229 66.7868 233.152 65.7103L232.911 65.6974C228.611 65.466 225.857 65.3178 222.426 68.1204C222.097 68.4065 221.773 68.6883 221.452 68.968C221.142 69.2376 220.835 69.5052 220.527 69.7728C219.877 70.3372 219.245 70.8851 218.613 71.4329C217.876 72.078 217.876 72.078 217.152 72.7103C217.162 72.486 217.173 72.2641 217.183 72.0443C217.352 68.5328 217.494 65.5847 215.152 62.7103C213.506 62.3152 212.727 62.1283 211.938 62.0033C211.229 61.8909 210.513 61.8286 209.152 61.7103C207.825 63.3687 207.02 64.375 206.548 65.5188C205.82 67.284 205.884 69.3765 206.047 74.6985L206.054 74.8249C206.087 75.4644 206.12 76.0874 206.152 76.7103C205.01 76.4097 204.417 76.2537 203.817 76.131C203.17 75.9986 202.515 75.905 201.152 75.7103C199.152 77.7103 199.152 77.7103 198.957 79.8743C198.969 80.2926 198.981 80.7049 198.992 81.114C199.004 81.5232 199.016 81.9292 199.027 82.3353C199.046 83.1735 199.064 83.9873 199.082 84.8008L199.082 84.8118C199.106 85.4573 199.129 86.0838 199.152 86.7103H197.152C197.147 86.3229 197.143 85.9399 197.138 85.5597C197.131 84.9767 197.124 84.4001 197.117 83.8235C197.108 82.5313 197.099 81.277 197.09 80.0228L197.087 79.6967C197.055 76.4421 197.026 73.3714 197.641 70.1595C198.152 67.7104 198.152 67.7103 198.355 64.5544L198.355 64.554L198.37 63.4813C198.381 62.7172 198.392 61.9637 198.402 61.2103C198.489 57.514 198.404 55.2371 196.805 51.886C194.837 49.2954 193.231 48.6256 190.152 47.7103C187.161 50.07 186.221 51.1747 185.727 55.0228C185.765 56.2765 185.802 57.4934 185.84 58.7103C185.905 61.9502 185.996 64.9778 186.672 68.1478C186.743 68.3806 186.814 68.6104 186.884 68.8385C186.974 69.1309 187.063 69.4206 187.152 69.7103L183.152 68.7103V66.7103C178.914 63.3886 177.733 60.9583 176.59 55.6478C175.032 47.9392 173.371 40.2467 169.152 33.5228Z" fill="white"/>
</svg>
