<svg width="28" height="27" viewBox="0 0 28 27" fill="none" xmlns="http://www.w3.org/2000/svg">
<path d="M27.85 13.5C27.85 20.8679 21.6543 26.85 14 26.85C6.34567 26.85 0.15 20.8679 0.15 13.5C0.15 6.13209 6.34567 0.15 14 0.15C21.6543 0.15 27.85 6.13209 27.85 13.5Z" fill="#F7F2EC" stroke="black" stroke-width="0.3"/>
<path d="M18.8487 6.13131C18.87 6.14087 18.8913 6.15042 18.9133 6.16026C19.2109 6.30827 19.4413 6.58173 19.6747 6.81303C19.6887 6.82689 19.7027 6.84075 19.7171 6.85503C19.791 6.92821 19.8648 7.00147 19.9385 7.0748C20.0139 7.14978 20.0897 7.22444 20.1655 7.29904C20.2245 7.35721 20.2832 7.41563 20.3419 7.47411C20.3697 7.50173 20.3976 7.52926 20.4256 7.55668C20.6327 7.75982 20.8007 7.96529 20.904 8.23892C20.9124 8.26048 20.9207 8.28204 20.9293 8.30426C21.0442 8.63955 21.0156 9.08165 20.8682 9.39998C20.6658 9.79478 20.3031 10.1042 19.992 10.4146C19.9538 10.4528 19.9156 10.4909 19.8775 10.5291C19.7734 10.6332 19.6693 10.7372 19.5651 10.8412C19.4525 10.9537 19.3399 11.0662 19.2273 11.1787C18.9817 11.4243 18.7359 11.6697 18.4902 11.9151C18.3367 12.0684 18.1832 12.2217 18.0297 12.375C17.6046 12.7997 17.1794 13.2244 16.7541 13.6489C16.7267 13.6763 16.6992 13.7037 16.6718 13.7311C16.6443 13.7586 16.6168 13.786 16.5893 13.8135C16.5341 13.8685 16.4789 13.9236 16.4238 13.9787C16.4033 13.9992 16.4033 13.9992 16.3823 14.0201C15.9381 14.4635 15.4941 14.9072 15.0502 15.3509C14.5803 15.8205 14.1103 16.29 13.6401 16.7594C13.3839 17.015 13.1279 17.2707 12.872 17.5266C12.6543 17.7443 12.4365 17.9619 12.2185 18.1792C12.1073 18.2901 11.9961 18.4011 11.8851 18.5123C11.7836 18.614 11.6818 18.7155 11.5799 18.8169C11.543 18.8536 11.5063 18.8904 11.4696 18.9273C11.4197 18.9774 11.3696 19.0272 11.3194 19.077C11.3052 19.0913 11.291 19.1057 11.2763 19.1206C11.1582 19.2368 11.0221 19.3403 10.8551 19.371C10.836 19.3747 10.817 19.3784 10.7974 19.3822C10.7666 19.3876 10.7666 19.3876 10.7353 19.393C10.7127 19.3973 10.6901 19.4016 10.6669 19.4059C10.5906 19.4202 10.5143 19.434 10.438 19.4477C10.3831 19.4578 10.3283 19.468 10.2734 19.4782C10.1485 19.5013 10.0234 19.5242 9.89842 19.547C9.69366 19.5845 9.48912 19.623 9.28459 19.6617C9.12119 19.6927 8.95773 19.7233 8.79426 19.7539C8.67781 19.7757 8.56138 19.7976 8.44498 19.8197C8.33373 19.8408 8.22242 19.8616 8.11106 19.8822C8.06982 19.8898 8.02859 19.8976 7.98739 19.9055C7.34778 20.028 7.34778 20.028 7.17853 19.9253C7.10595 19.8647 7.04694 19.8084 7.00442 19.7235C6.98934 19.4885 7.0142 19.2655 7.05824 19.0351C7.06396 19.0038 7.06969 18.9725 7.07558 18.9402C7.09437 18.8379 7.11361 18.7357 7.13288 18.6334C7.14617 18.5618 7.15943 18.4902 7.17268 18.4185C7.20038 18.2689 7.22833 18.1193 7.25644 17.9698C7.28884 17.7974 7.32088 17.625 7.35271 17.4525C7.3835 17.2858 7.41451 17.119 7.44564 16.9523C7.45881 16.8817 7.47192 16.8111 7.48497 16.7405C7.50325 16.6419 7.5218 16.5433 7.54041 16.4447C7.54839 16.4012 7.54839 16.4012 7.55653 16.3569C7.65107 15.8615 7.96587 15.6001 8.31228 15.2546C8.35057 15.2163 8.38887 15.178 8.42715 15.1397C8.5318 15.0351 8.63654 14.9305 8.74129 14.8259C8.85446 14.7129 8.96756 14.5998 9.08067 14.4867C9.34054 14.227 9.60052 13.9673 9.86052 13.7077C9.98911 13.5793 10.1177 13.4509 10.2462 13.3224C10.6867 12.8825 11.1272 12.4425 11.5678 12.0027C11.5954 11.9751 11.623 11.9475 11.6506 11.92C11.6783 11.8923 11.706 11.8647 11.7337 11.8371C11.7892 11.7816 11.8447 11.7262 11.9002 11.6708C11.9209 11.6502 11.9209 11.6502 11.9419 11.6292C12.3886 11.1833 12.8351 10.7372 13.2814 10.2911C13.7539 9.81885 14.2265 9.34679 14.6992 8.8749C14.7511 8.82309 14.803 8.77128 14.8549 8.71946C14.8741 8.70033 14.8741 8.70033 14.8937 8.68081C15.0864 8.48845 15.2789 8.29597 15.4715 8.10344C15.6904 7.88447 15.9095 7.66564 16.1288 7.447C16.2407 7.33548 16.3525 7.22389 16.464 7.11212C16.5663 7.00974 16.6687 6.90756 16.7713 6.80552C16.8083 6.76864 16.8452 6.73169 16.882 6.69467C17.3456 6.22923 17.3456 6.22923 17.6564 6.10748C17.6959 6.09157 17.6959 6.09157 17.7363 6.07535C18.0773 5.95884 18.5251 5.97741 18.8487 6.13131ZM17.5524 7.25492C17.5273 7.28041 17.5023 7.3059 17.4765 7.33217C17.4151 7.3947 17.354 7.45748 17.2931 7.5205C17.4091 7.65872 17.5303 7.78826 17.6583 7.91535C17.6778 7.93477 17.6972 7.95419 17.7173 7.97421C17.781 8.03779 17.8448 8.10128 17.9086 8.16476C17.9531 8.20907 17.9975 8.25337 18.0419 8.29769C18.1584 8.41386 18.275 8.52995 18.3916 8.64603C18.5108 8.76467 18.6298 8.88338 18.7489 9.00209C18.9822 9.23468 19.2156 9.46717 19.4491 9.69961C19.4797 9.67349 19.5104 9.64735 19.541 9.62121C19.558 9.60666 19.5751 9.5921 19.5927 9.57711C19.6826 9.49956 19.767 9.41678 19.8516 9.33359C19.8696 9.31644 19.8876 9.29928 19.9061 9.28161C20.0578 9.13221 20.1426 8.99876 20.145 8.7786C20.1459 8.75314 20.1467 8.72768 20.1476 8.70145C20.0965 8.41341 19.8991 8.22171 19.6987 8.02389C19.6695 7.9947 19.6404 7.96549 19.6113 7.93626C19.5505 7.8754 19.4895 7.81479 19.4283 7.75435C19.3504 7.6774 19.2731 7.59985 19.1961 7.5221C19.1361 7.46177 19.0758 7.40177 19.0155 7.34186C18.9869 7.31342 18.9584 7.28487 18.93 7.25622C18.7442 7.06916 18.5613 6.90014 18.2941 6.84963C18.2562 6.85053 18.2562 6.85053 18.2176 6.85144C18.1922 6.85141 18.1668 6.85137 18.1406 6.85134C17.8803 6.89952 17.7294 7.07158 17.5524 7.25492ZM16.6074 8.19817C16.571 8.23453 16.571 8.23453 16.5338 8.27164C16.5203 8.28511 16.5067 8.29859 16.4927 8.31247C16.4468 8.35818 16.401 8.40408 16.3553 8.44998C16.3223 8.48291 16.2892 8.51583 16.2562 8.54874C16.165 8.63962 16.074 8.73066 15.9831 8.82173C15.8851 8.91976 15.7869 9.01763 15.6888 9.11551C15.5187 9.28527 15.3487 9.45512 15.1788 9.62504C14.9331 9.87072 14.6872 10.1163 14.4413 10.3617C14.0424 10.76 13.6436 11.1584 13.2449 11.5568C12.8575 11.944 12.4701 12.3311 12.0825 12.7181C12.0587 12.742 12.0348 12.7658 12.0102 12.7904C11.8905 12.91 11.7707 13.0296 11.651 13.1491C10.6569 14.1419 9.66295 15.1349 8.66917 16.128C8.70789 16.2084 8.74555 16.2655 8.80906 16.3286C8.82658 16.3462 8.84411 16.3638 8.86217 16.3819C8.88137 16.4008 8.90056 16.4198 8.92034 16.4394C8.94058 16.4596 8.96082 16.4798 8.98167 16.5006C9.04858 16.5673 9.11569 16.6339 9.18279 16.7004C9.22923 16.7467 9.27565 16.7929 9.32207 16.8392C9.44425 16.961 9.5666 17.0825 9.68898 17.2041C9.81383 17.3281 9.93853 17.4523 10.0632 17.5765C10.308 17.8202 10.5529 18.0637 10.7979 18.3071C10.9009 18.2644 10.9661 18.2004 11.0445 18.1221C11.0648 18.102 11.0648 18.102 11.0855 18.0814C11.131 18.0361 11.1763 17.9906 11.2217 17.9452C11.2545 17.9124 11.2873 17.8797 11.3202 17.8469C11.4106 17.7568 11.5009 17.6665 11.5911 17.5762C11.6884 17.4789 11.7858 17.3817 11.8832 17.2845C12.052 17.1161 12.2207 16.9475 12.3893 16.7789C12.6331 16.5351 12.8771 16.2915 13.1211 16.0479C13.5169 15.6527 13.9127 15.2573 14.3083 14.8619C14.6927 14.4778 15.0771 14.0937 15.4616 13.7097C15.4853 13.686 15.509 13.6624 15.5334 13.638C15.6523 13.5193 15.7712 13.4006 15.89 13.2819C16.8764 12.2968 17.8626 11.3115 18.8487 10.3261C18.81 10.2458 18.7724 10.1887 18.7092 10.1255C18.6917 10.1079 18.6743 10.0903 18.6563 10.0722C18.6372 10.0533 18.6181 10.0343 18.5984 10.0147C18.5782 9.99454 18.5581 9.97433 18.5373 9.95351C18.4707 9.88676 18.4038 9.82021 18.337 9.75366C18.2907 9.70741 18.2444 9.66116 18.1981 9.61489C18.1011 9.51799 18.004 9.42119 17.9068 9.32446C17.782 9.20019 17.6574 9.07568 17.5329 8.95109C17.4374 8.85557 17.3418 8.76017 17.2461 8.66481C17.2001 8.61893 17.1541 8.57301 17.1082 8.52705C17.0442 8.463 16.98 8.39913 16.9157 8.3353C16.8966 8.31611 16.8775 8.29693 16.8578 8.27716C16.8404 8.2599 16.8229 8.24264 16.8049 8.22485C16.7898 8.20973 16.7746 8.1946 16.759 8.17902C16.6914 8.12352 16.6709 8.14212 16.6074 8.19817ZM8.31439 17.0269C8.22652 17.4266 8.14905 17.828 8.07524 18.2304C8.06525 18.2849 8.05522 18.3394 8.04515 18.3938C8.03082 18.4714 8.01667 18.549 8.00257 18.6266C7.99605 18.6618 7.99605 18.6618 7.9894 18.6977C7.98547 18.7196 7.98154 18.7415 7.97748 18.764C7.97401 18.783 7.97055 18.802 7.96698 18.8216C7.95863 18.8867 7.9584 18.9498 7.9596 19.0153C8.18918 18.9994 8.4124 18.964 8.63847 18.9218C8.67359 18.9153 8.70871 18.9088 8.74489 18.9021C8.81858 18.8885 8.89224 18.8748 8.96589 18.861C9.06021 18.8433 9.15459 18.826 9.24898 18.8087C9.33946 18.7921 9.42988 18.7752 9.52031 18.7584C9.57109 18.7491 9.57109 18.7491 9.6229 18.7396C9.65416 18.7337 9.68542 18.7278 9.71763 18.7217C9.74515 18.7166 9.77267 18.7115 9.80102 18.7062C9.87598 18.6909 9.87598 18.6909 9.95184 18.634C9.74246 18.4244 9.53299 18.2148 9.32344 18.0054C9.22615 17.9081 9.12888 17.8108 9.03167 17.7135C8.93795 17.6197 8.84416 17.5259 8.75032 17.4322C8.71444 17.3963 8.67859 17.3604 8.64276 17.3245C8.59276 17.2744 8.54268 17.2244 8.49258 17.1744C8.47763 17.1594 8.46267 17.1443 8.44726 17.1289C8.39042 17.0585 8.39042 17.0585 8.31439 17.0269Z" fill="#552255" fill-opacity="0.733333"/>
</svg>
