<svg width="14" height="14" viewBox="0 0 14 14" fill="none" xmlns="http://www.w3.org/2000/svg">
<path d="M11.8487 0.131315C11.87 0.140865 11.8913 0.150416 11.9133 0.160256C12.2109 0.308268 12.4413 0.581729 12.6747 0.813032C12.6887 0.826892 12.7027 0.840752 12.7171 0.855032C12.791 0.928209 12.8648 1.00147 12.9385 1.0748C13.0139 1.14978 13.0897 1.22444 13.1655 1.29904C13.2245 1.35721 13.2832 1.41563 13.3419 1.47411C13.3697 1.50173 13.3976 1.52926 13.4256 1.55668C13.6327 1.75982 13.8007 1.96529 13.904 2.23892C13.9124 2.26048 13.9207 2.28204 13.9293 2.30426C14.0442 2.63955 14.0156 3.08165 13.8682 3.39998C13.6658 3.79478 13.3031 4.10423 12.992 4.41458C12.9538 4.45275 12.9156 4.49093 12.8775 4.52912C12.7734 4.6332 12.6693 4.7372 12.5651 4.84119C12.4525 4.95366 12.3399 5.0662 12.2273 5.17874C11.9817 5.42428 11.7359 5.66972 11.4902 5.91514C11.3367 6.06842 11.1832 6.22172 11.0297 6.37502C10.6046 6.7997 10.1794 7.22436 9.75411 7.64891C9.72667 7.67631 9.69923 7.7037 9.67179 7.73109C9.64429 7.75855 9.61679 7.78601 9.58928 7.81347C9.53411 7.86854 9.47894 7.92362 9.42377 7.9787C9.40325 7.99918 9.40325 7.99918 9.38232 8.02008C8.93812 8.46353 8.49408 8.90716 8.05015 9.35088C7.58028 9.82052 7.11025 10.29 6.64006 10.7594C6.38393 11.015 6.12787 11.2707 5.87198 11.5266C5.6543 11.7443 5.43648 11.9619 5.21848 12.1792C5.10725 12.2901 4.9961 12.4011 4.88511 12.5123C4.78355 12.614 4.6818 12.7155 4.5799 12.8169C4.54305 12.8536 4.50627 12.8904 4.46956 12.9273C4.41968 12.9774 4.36956 13.0272 4.31937 13.077C4.30516 13.0913 4.29095 13.1057 4.27631 13.1206C4.15822 13.2368 4.02211 13.3403 3.85509 13.371C3.83604 13.3747 3.81699 13.3784 3.79736 13.3822C3.76663 13.3876 3.76663 13.3876 3.73529 13.393C3.71271 13.3973 3.69014 13.4016 3.66689 13.4059C3.59064 13.4202 3.51431 13.434 3.43796 13.4477C3.38311 13.4578 3.32827 13.468 3.27343 13.4782C3.14846 13.5013 3.02345 13.5242 2.89842 13.547C2.69366 13.5845 2.48912 13.623 2.28459 13.6617C2.12119 13.6927 1.95773 13.7233 1.79426 13.7539C1.67781 13.7757 1.56138 13.7976 1.44498 13.8197C1.33373 13.8408 1.22242 13.8616 1.11106 13.8822C1.06982 13.8898 1.02859 13.8976 0.987389 13.9055C0.347782 14.028 0.347781 14.028 0.178533 13.9253C0.105954 13.8647 0.0469428 13.8084 0.00442118 13.7235C-0.0106575 13.4885 0.0141982 13.2655 0.0582368 13.0351C0.0639614 13.0038 0.0696855 12.9725 0.0755835 12.9402C0.094372 12.8379 0.113614 12.7357 0.132881 12.6334C0.146167 12.5618 0.159434 12.4902 0.172676 12.4185C0.200379 12.2689 0.228331 12.1193 0.256443 11.9698C0.288843 11.7974 0.320876 11.625 0.352707 11.4525C0.383496 11.2858 0.414513 11.119 0.445644 10.9523C0.458807 10.8817 0.471917 10.8111 0.484974 10.7405C0.503255 10.6419 0.521797 10.5433 0.540412 10.4447C0.548392 10.4012 0.548392 10.4012 0.556533 10.3569C0.651067 9.86152 0.965872 9.60011 1.31228 9.25463C1.35057 9.21633 1.38887 9.17803 1.42715 9.13973C1.5318 9.03506 1.63654 8.93047 1.74129 8.8259C1.85446 8.71289 1.96756 8.5998 2.08067 8.48672C2.34054 8.22696 2.60052 7.96732 2.86052 7.70769C2.98911 7.57929 3.11768 7.45086 3.24625 7.32244C3.68672 6.88246 4.12721 6.44251 4.56781 6.00266C4.59542 5.97509 4.62303 5.94753 4.65065 5.91996C4.67832 5.89233 4.706 5.8647 4.73368 5.83707C4.7892 5.78165 4.84472 5.72622 4.90023 5.67079C4.92088 5.65018 4.92088 5.65018 4.94195 5.62915C5.38859 5.18326 5.83506 4.73721 6.28143 4.29105C6.75387 3.81885 7.22646 3.34679 7.69921 2.8749C7.75112 2.82309 7.80302 2.77128 7.85493 2.71946C7.8741 2.70033 7.8741 2.70033 7.89366 2.68081C8.08636 2.48845 8.27894 2.29597 8.47147 2.10344C8.69044 1.88447 8.90954 1.66564 9.12883 1.447C9.24067 1.33548 9.35245 1.22389 9.46405 1.11212C9.56627 1.00974 9.66869 0.907556 9.77125 0.805518C9.80825 0.76864 9.84519 0.731694 9.88204 0.694671C10.3456 0.229234 10.3456 0.229234 10.6564 0.10748C10.6959 0.0915745 10.6959 0.0915745 10.7363 0.0753471C11.0773 -0.0411641 11.5251 -0.0225853 11.8487 0.131315ZM10.5524 1.25492C10.5273 1.28041 10.5023 1.3059 10.4765 1.33217C10.4151 1.3947 10.354 1.45748 10.2931 1.5205C10.4091 1.65872 10.5303 1.78826 10.6583 1.91535C10.6778 1.93477 10.6972 1.95419 10.7173 1.97421C10.781 2.03779 10.8448 2.10128 10.9086 2.16476C10.9531 2.20907 10.9975 2.25337 11.0419 2.29769C11.1584 2.41386 11.275 2.52995 11.3916 2.64603C11.5108 2.76467 11.6298 2.88338 11.7489 3.00209C11.9822 3.23468 12.2156 3.46717 12.4491 3.69961C12.4797 3.67349 12.5104 3.64735 12.541 3.62121C12.558 3.60666 12.5751 3.5921 12.5927 3.57711C12.6826 3.49956 12.767 3.41678 12.8516 3.33359C12.8696 3.31644 12.8876 3.29928 12.9061 3.28161C13.0578 3.13221 13.1426 2.99876 13.145 2.7786C13.1459 2.75314 13.1467 2.72768 13.1476 2.70145C13.0965 2.41341 12.8991 2.22171 12.6987 2.02389C12.6695 1.9947 12.6404 1.96549 12.6113 1.93626C12.5505 1.8754 12.4895 1.81479 12.4283 1.75435C12.3504 1.6774 12.2731 1.59985 12.1961 1.5221C12.1361 1.46177 12.0758 1.40177 12.0155 1.34186C11.9869 1.31342 11.9584 1.28487 11.93 1.25622C11.7442 1.06916 11.5613 0.900139 11.2941 0.849634C11.2562 0.85053 11.2562 0.85053 11.2176 0.851443C11.1922 0.851408 11.1668 0.851373 11.1406 0.851337C10.8803 0.89952 10.7294 1.07158 10.5524 1.25492ZM9.60737 2.19817C9.57096 2.23453 9.57096 2.23453 9.53382 2.27164C9.52026 2.28511 9.50669 2.29859 9.49272 2.31247C9.44678 2.35818 9.40103 2.40408 9.35528 2.44998C9.32227 2.48291 9.28924 2.51583 9.25619 2.54874C9.16502 2.63962 9.07403 2.73066 8.98306 2.82173C8.88508 2.91976 8.78694 3.01763 8.68883 3.11551C8.51872 3.28527 8.34871 3.45512 8.17877 3.62504C7.93307 3.87072 7.68721 4.11625 7.44132 4.36175C7.04241 4.76001 6.64364 5.15839 6.24493 5.55684C5.85753 5.94401 5.47007 6.33111 5.08254 6.71814C5.05867 6.74198 5.0348 6.76582 5.0102 6.79038C4.89046 6.90997 4.77071 7.02956 4.65096 7.14915C3.65686 8.14192 2.66295 9.13489 1.66917 10.128C1.70789 10.2084 1.74555 10.2655 1.80906 10.3286C1.82658 10.3462 1.84411 10.3638 1.86217 10.3819C1.88137 10.4008 1.90056 10.4198 1.92034 10.4394C1.94058 10.4596 1.96082 10.4798 1.98167 10.5006C2.04858 10.5673 2.11569 10.6339 2.18279 10.7004C2.22923 10.7467 2.27565 10.7929 2.32207 10.8392C2.44425 10.961 2.5666 11.0825 2.68898 11.2041C2.81383 11.3281 2.93853 11.4523 3.06325 11.5765C3.30797 11.8202 3.55286 12.0637 3.79786 12.3071C3.90085 12.2644 3.96611 12.2004 4.04449 12.1221C4.06479 12.102 4.06479 12.102 4.0855 12.0814C4.13101 12.0361 4.17633 11.9906 4.22165 11.9452C4.25449 11.9124 4.28734 11.8797 4.32021 11.8469C4.41063 11.7568 4.50088 11.6665 4.59111 11.5762C4.68838 11.4789 4.78581 11.3817 4.88321 11.2845C5.05201 11.1161 5.22071 10.9475 5.38933 10.7789C5.63314 10.5351 5.8771 10.2915 6.1211 10.0479C6.51694 9.65268 6.91266 9.25735 7.30831 8.86194C7.69269 8.47779 8.07713 8.0937 8.46164 7.70969C8.48534 7.68603 8.50903 7.66236 8.53344 7.63799C8.6523 7.51928 8.77116 7.40058 8.89002 7.28188C9.87642 6.29679 10.8626 5.31152 11.8487 4.32611C11.81 4.24582 11.7724 4.18865 11.7092 4.12546C11.6917 4.10789 11.6743 4.09032 11.6563 4.07222C11.6372 4.05325 11.6181 4.03429 11.5984 4.01475C11.5782 3.99454 11.5581 3.97433 11.5373 3.95351C11.4707 3.88676 11.4038 3.82021 11.337 3.75366C11.2907 3.70741 11.2444 3.66116 11.1981 3.61489C11.1011 3.51799 11.004 3.42119 10.9068 3.32446C10.782 3.20019 10.6574 3.07568 10.5329 2.95109C10.4374 2.85557 10.3418 2.76017 10.2461 2.66481C10.2001 2.61893 10.1541 2.57301 10.1082 2.52705C10.0442 2.463 9.97998 2.39913 9.91573 2.3353C9.89661 2.31611 9.8775 2.29693 9.85781 2.27716C9.84036 2.2599 9.82291 2.24264 9.80494 2.22485C9.78976 2.20973 9.77459 2.1946 9.75895 2.17902C9.69145 2.12352 9.67095 2.14212 9.60737 2.19817ZM1.31439 11.0269C1.22652 11.4266 1.14905 11.828 1.07524 12.2304C1.06525 12.2849 1.05522 12.3394 1.04515 12.3938C1.03082 12.4714 1.01667 12.549 1.00257 12.6266C0.996051 12.6618 0.996051 12.6618 0.989405 12.6977C0.98547 12.7196 0.981535 12.7415 0.977481 12.764C0.974014 12.783 0.970547 12.802 0.966975 12.8216C0.958635 12.8867 0.958403 12.9498 0.959604 13.0153C1.18918 12.9994 1.4124 12.964 1.63847 12.9218C1.67359 12.9153 1.70871 12.9088 1.74489 12.9021C1.81858 12.8885 1.89224 12.8748 1.96589 12.861C2.06021 12.8433 2.15459 12.826 2.24898 12.8087C2.33946 12.7921 2.42988 12.7752 2.52031 12.7584C2.57109 12.7491 2.57109 12.7491 2.6229 12.7396C2.65416 12.7337 2.68542 12.7278 2.71763 12.7217C2.74515 12.7166 2.77267 12.7115 2.80102 12.7062C2.87598 12.6909 2.87598 12.6909 2.95184 12.634C2.74246 12.4244 2.53299 12.2148 2.32344 12.0054C2.22615 11.9081 2.12888 11.8108 2.03167 11.7135C1.93795 11.6197 1.84416 11.5259 1.75032 11.4322C1.71444 11.3963 1.67859 11.3604 1.64276 11.3245C1.59276 11.2744 1.54268 11.2244 1.49258 11.1744C1.47763 11.1594 1.46267 11.1443 1.44726 11.1289C1.39042 11.0585 1.39042 11.0585 1.31439 11.0269Z" fill="#552255" fill-opacity="0.733333"/>
</svg>
