<svg width="26" height="32" viewBox="0 0 26 32" fill="none" xmlns="http://www.w3.org/2000/svg">
<g clip-path="url(#clip0_65_26)">
<path d="M15.1667 28H0.722222C0.323194 28 0 28.4475 0 29V31C0 31.5525 0.323194 32 0.722222 32H15.1667C15.5657 32 15.8889 31.5525 15.8889 31V29C15.8889 28.4475 15.5657 28 15.1667 28ZM24.5556 8V5C24.5556 4.4475 24.2324 4 23.8333 4C23.4343 4 23.1111 4.4475 23.1111 5V8H21.6667V5C21.6667 4.4475 21.3435 4 20.9444 4C20.5454 4 20.2222 4.4475 20.2222 5V8H19.5C19.101 8 18.7778 8.4475 18.7778 9V11C18.7778 13.235 19.844 15.1056 21.3056 15.7456V23.1513C21.3056 24.0231 20.8767 24.8337 20.2556 24.9756C19.4648 25.1562 18.7778 24.3119 18.7778 23.25V21.5C18.7778 18.4625 16.9993 16 14.8056 16H14.4444V4C14.4444 1.79063 13.1512 0 11.5556 0H4.33333C2.73767 0 1.44444 1.79063 1.44444 4V26H14.4444V19H14.8056C15.8027 19 16.6111 20.1194 16.6111 21.5V23.0381C16.6111 25.5175 17.9165 27.7356 19.6991 27.9762C21.7439 28.2531 23.4722 26.0256 23.4722 23.25V15.7456C24.9338 15.1056 26 13.235 26 11V9C26 8.4475 25.6768 8 25.2778 8H24.5556ZM11.7402 10.985L7.51066 19.6725C7.41135 19.8806 7.23035 20 7.04167 20C6.69545 20 6.43365 19.6075 6.5149 19.1925L7.55399 14H4.875C4.54774 14 4.29497 13.6506 4.3383 13.2569L5.06052 6.56938C5.09618 6.24375 5.32549 6 5.59722 6H8.66667C9.02236 6 9.28146 6.40875 9.19028 6.82562L8.66667 10H11.2712C11.6883 10 11.9487 10.5487 11.7402 10.985Z" fill="#525B5A"/>
</g>
<defs>
<clipPath id="clip0_65_26">
<rect width="26" height="32" fill="white"/>
</clipPath>
</defs>
</svg>
