<svg width="38" height="29" viewBox="0 0 38 29" fill="none" xmlns="http://www.w3.org/2000/svg">
<path d="M19.413 0C26.7033 0 32.6924 5.6317 33.7044 12.9464H38L30.7717 21.5774L23.5435 12.9464H28.3348C27.4054 8.69568 23.7707 5.50223 19.413 5.50223C16.4185 5.50223 13.775 7.03423 12.1022 9.34301L8.57065 5.13542C11.2141 1.98512 15.0967 0 19.413 0ZM18.587 29C11.3174 29 5.30761 23.3683 4.29565 16.0536H0L7.22826 7.42262C9.64457 10.2924 12.0402 13.1838 14.4565 16.0536H9.66522C10.5946 20.3043 14.2293 23.4978 18.587 23.4978C21.5815 23.4978 24.225 21.9658 25.8978 19.657L29.4293 23.8646C26.7859 27.0149 22.9239 29 18.587 29Z" fill="#525B5A"/>
</svg>
