<svg width="43" height="43" viewBox="0 0 43 43" fill="none" xmlns="http://www.w3.org/2000/svg">
<path fill-rule="evenodd" clip-rule="evenodd" d="M21.6845 42.7432C33.2913 42.7432 42.7005 33.334 42.7005 21.7272C42.7005 10.1203 33.2913 0.711121 21.6845 0.711121C10.0777 0.711121 0.668457 10.1203 0.668457 21.7272C0.668457 33.334 10.0777 42.7432 21.6845 42.7432ZM21.6845 41.4642C32.5848 41.4642 41.4213 32.6277 41.4213 21.7274C41.4213 10.8271 32.5848 1.9906 21.6845 1.9906C10.7842 1.9906 1.9477 10.8271 1.9477 21.7274C1.9477 32.6277 10.7842 41.4642 21.6845 41.4642ZM29.1772 17.25C29.1772 21.4385 25.7817 24.834 21.5932 24.834C17.4046 24.834 14.0091 21.4385 14.0091 17.25C14.0091 13.0614 17.4046 9.66594 21.5932 9.66594C25.7817 9.66594 29.1772 13.0614 29.1772 17.25ZM21.6845 25.7477C15.7793 25.7477 10.7826 29.6378 9.11745 34.9952C12.3928 38.0986 16.8164 40.0021 21.6845 40.0021C26.5527 40.0021 30.9763 38.0986 34.2516 34.9952C32.5864 29.6378 27.5898 25.7477 21.6845 25.7477Z" fill="#525B5A"/>
</svg>
