<svg width="30" height="30" viewBox="0 0 30 30" fill="none" xmlns="http://www.w3.org/2000/svg">
<path fill-rule="evenodd" clip-rule="evenodd" d="M30 15C30 23.2843 23.2843 30 15 30C6.71572 30 0 23.2843 0 15C0 6.71572 6.71572 0 15 0C23.2843 0 30 6.71572 30 15ZM18.75 9.375C18.75 11.4461 17.0711 13.125 15 13.125C12.9289 13.125 11.25 11.4461 11.25 9.375C11.25 7.30393 12.9289 5.625 15 5.625C17.0711 5.625 18.75 7.30393 18.75 9.375ZM14.9999 16.875C11.217 16.875 7.95739 19.1156 6.47576 22.3419C8.53881 24.735 11.5925 26.25 15 26.25C18.4074 26.25 21.4611 24.7352 23.5241 22.3421C22.0425 19.1156 18.7828 16.875 14.9999 16.875Z" fill="#525B5A"/>
</svg>
