<svg width="35" height="35" viewBox="0 0 35 35" fill="none" xmlns="http://www.w3.org/2000/svg">
<path d="M33.7873 18.8822C33.5412 16.1198 33.1359 15.5818 32.9827 15.3795C32.6307 14.9119 32.0674 14.6063 31.4713 14.2857C31.4376 14.2679 31.4085 14.2425 31.3863 14.2115C31.3641 14.1805 31.3494 14.1448 31.3433 14.1071C31.3373 14.0695 31.3401 14.0309 31.3515 13.9945C31.3629 13.9582 31.3826 13.9249 31.4091 13.8975C31.5195 13.7855 31.6043 13.651 31.6578 13.5031C31.7112 13.3553 31.732 13.1976 31.7188 13.0409C31.6931 12.7631 31.5639 12.5051 31.3569 12.3181C31.1498 12.1311 30.8801 12.0287 30.6011 12.0312H29.5347C29.489 12.0315 29.4433 12.0345 29.398 12.0401C29.3668 12.0266 29.3346 12.0159 29.3016 12.008C28.6699 10.6729 27.8052 8.84502 26.0128 7.95293C23.3543 6.63086 18.4571 6.5625 17.5 6.5625C16.543 6.5625 11.6457 6.63086 8.99064 7.95088C7.19826 8.84297 6.33352 10.6709 5.70188 12.006L5.69641 12.0169C5.6649 12.0213 5.63397 12.0291 5.60412 12.0401C5.55876 12.0345 5.51311 12.0315 5.4674 12.0312H4.39895C4.11996 12.0287 3.85021 12.1311 3.64318 12.3181C3.43616 12.5051 3.30698 12.7631 3.28127 13.0409C3.26913 13.1972 3.29088 13.3543 3.34503 13.5014C3.39918 13.6485 3.48446 13.7822 3.59504 13.8934C3.62149 13.9208 3.6412 13.9541 3.65262 13.9904C3.66403 14.0268 3.66683 14.0654 3.66079 14.103C3.65476 14.1407 3.64006 14.1764 3.61786 14.2074C3.59565 14.2384 3.56654 14.2638 3.53283 14.2816C2.93674 14.6043 2.37072 14.9099 2.02141 15.3754C1.86828 15.5805 1.46359 16.1157 1.21682 18.8781C1.0801 20.4326 1.05959 22.0418 1.16691 23.0781C1.39182 25.2314 1.81359 26.533 1.83137 26.587C1.89609 26.7835 2.01523 26.9577 2.17495 27.0892C2.33467 27.2207 2.52842 27.3043 2.73371 27.3301V27.3438C2.73371 27.6338 2.84895 27.912 3.05406 28.1171C3.25918 28.3223 3.53738 28.4375 3.82746 28.4375H7.65559C7.94567 28.4375 8.22387 28.3223 8.42898 28.1171C8.6341 27.912 8.74934 27.6338 8.74934 27.3438C9.33791 27.3438 9.74738 27.2385 10.1815 27.1264C10.8082 26.9575 11.4488 26.8452 12.0955 26.7907C14.1812 26.5918 16.2552 26.5234 17.5 26.5234C18.7195 26.5234 20.8852 26.5918 22.9742 26.7907C23.6236 26.8453 24.2667 26.9581 24.8958 27.1277C25.3114 27.2344 25.7059 27.3328 26.2521 27.3431C26.2521 27.6331 26.3673 27.9113 26.5724 28.1165C26.7775 28.3216 27.0557 28.4368 27.3458 28.4368H31.1739C31.464 28.4368 31.7422 28.3216 31.9473 28.1165C32.1525 27.9113 32.2677 27.6331 32.2677 27.3431V27.3349C32.4735 27.3095 32.6678 27.2262 32.8281 27.0947C32.9883 26.9631 33.1078 26.7887 33.1728 26.5918C33.1905 26.5378 33.6123 25.2362 33.8372 23.0829C33.9445 22.0459 33.9254 20.4395 33.7873 18.8822ZM7.67883 12.9411C8.2257 11.779 8.85119 10.4638 9.96477 9.90938C11.5739 9.1082 14.9092 8.74727 17.5 8.74727C20.0908 8.74727 23.4261 9.10547 25.0353 9.90938C26.1488 10.4638 26.7716 11.7797 27.3212 12.9411L27.3896 13.0895C27.4295 13.1739 27.4472 13.2672 27.4409 13.3604C27.4346 13.4536 27.4045 13.5437 27.3535 13.6219C27.3025 13.7002 27.2323 13.7641 27.1496 13.8076C27.0668 13.851 26.9744 13.8726 26.881 13.8701C24.6094 13.8086 19.8242 13.6117 17.5 13.6117C15.1758 13.6117 10.3906 13.8134 8.11564 13.8749C8.02224 13.8773 7.92978 13.8558 7.84706 13.8124C7.76434 13.7689 7.69414 13.705 7.64313 13.6267C7.59213 13.5485 7.56204 13.4584 7.55572 13.3652C7.54941 13.272 7.56708 13.1787 7.60705 13.0942C7.63098 13.0437 7.65627 12.9924 7.67883 12.9411ZM8.49436 18.3846C7.31844 18.5261 6.135 18.596 4.95061 18.5938C4.226 18.5938 3.47883 18.3887 3.34006 17.7434C3.24504 17.3093 3.25529 17.0652 3.30656 16.8198C3.34963 16.6113 3.41799 16.4596 3.75979 16.4062C4.64846 16.2695 5.14543 16.4411 6.60012 16.8697C7.56467 17.1534 8.26057 17.5314 8.65705 17.8309C8.85598 17.9785 8.75002 18.3641 8.49436 18.3846ZM23.6278 23.99C22.7281 24.0926 20.9289 24.055 17.5205 24.055C14.1121 24.055 12.3136 24.0926 11.414 23.99C10.4857 23.8868 9.30236 23.0091 10.1104 22.2271C10.6484 21.7116 11.9034 21.3261 13.5748 21.1094C15.2462 20.8927 15.9537 20.7812 17.5137 20.7812C19.0737 20.7812 19.7094 20.8496 21.4526 21.1101C23.1957 21.3705 24.513 21.7608 24.917 22.2277C25.6539 23.0645 24.5554 23.8813 23.6278 23.9941V23.99ZM31.66 17.7427C31.5233 18.3907 30.7713 18.5931 30.0494 18.5931C28.8424 18.5933 27.6363 18.5235 26.4373 18.3839C26.2281 18.3641 26.1311 17.997 26.343 17.8302C26.7333 17.5232 27.4367 17.1527 28.3999 16.869C29.8546 16.4404 30.6934 16.2688 31.4139 16.4117C31.5896 16.4466 31.6825 16.6353 31.6935 16.7535C31.7417 17.0828 31.7303 17.4181 31.66 17.7434V17.7427Z" fill="#525B5A"/>
</svg>
