<svg width="367" height="346" viewBox="0 0 367 346" fill="none" xmlns="http://www.w3.org/2000/svg">
<path d="M35.7387 338H331.261C336.061 337.999 340.778 336.753 344.953 334.382C349.127 332.012 352.615 328.599 355.076 324.477C357.537 320.355 358.886 315.664 358.993 310.864C359.1 306.064 357.96 301.318 355.684 297.09L207.932 22.5963C197.45 3.13456 169.55 3.13456 159.068 22.5963L11.3156 297.09C9.04022 301.318 7.90017 306.064 8.00686 310.864C8.11355 315.664 9.46334 320.355 11.9243 324.477C14.3853 328.599 17.8733 332.012 22.0474 334.382C26.2215 336.753 30.939 337.999 35.7387 338Z" stroke="#D63D3D" stroke-width="15" stroke-linecap="round" stroke-linejoin="round"/>
<path d="M178.004 105.95L183.744 227.95L189.474 106C189.509 105.221 189.385 104.442 189.11 103.712C188.834 102.982 188.412 102.316 187.87 101.754C187.328 101.193 186.678 100.747 185.958 100.446C185.238 100.144 184.464 99.9927 183.684 100C182.917 100.008 182.16 100.169 181.456 100.474C180.753 100.779 180.118 101.222 179.588 101.777C179.059 102.331 178.646 102.986 178.374 103.703C178.101 104.42 177.976 105.184 178.004 105.95Z" stroke="#D63D3D" stroke-width="15" stroke-linecap="round" stroke-linejoin="round"/>
<path d="M184 295.5C181.132 295.5 178.329 294.65 175.944 293.056C173.56 291.463 171.701 289.198 170.604 286.549C169.506 283.899 169.219 280.984 169.779 278.171C170.338 275.358 171.719 272.775 173.747 270.747C175.775 268.719 178.358 267.338 181.171 266.779C183.984 266.219 186.899 266.506 189.549 267.604C192.198 268.701 194.463 270.56 196.056 272.944C197.65 275.329 198.5 278.132 198.5 281C198.5 284.846 196.972 288.534 194.253 291.253C191.534 293.972 187.846 295.5 184 295.5Z" fill="#D63D3D" stroke="#D63D3D"/>
</svg>
